HIERARCHY
ROOT SimulationBone
{
	OFFSET 0.000000 0.000000 0.000000
	CHANNELS 6 Xposition Yposition Zposition Zrotation Yrotation Xrotation 
	JOINT Hips
	{
		OFFSET 0.000000 0.000000 0.000000
		CHANNELS 6 Xposition Yposition Zposition Zrotation Yrotation Xrotation 
		JOINT RightUpLeg
		{
			OFFSET 0.103458 1.857826 10.548496
			CHANNELS 3 Zrotation Yrotation Xrotation
			JOINT RightLeg
			{
				OFFSET 43.500000 -0.000027 -0.000004
				CHANNELS 3 Zrotation Yrotation Xrotation
				JOINT RightFoot
				{
					OFFSET 42.372200 0.000015 -0.000005
					CHANNELS 3 Zrotation Yrotation Xrotation
					JOINT RightToe
					{
						OFFSET 17.299997 -0.000002 0.000005
						CHANNELS 3 Zrotation Yrotation Xrotation
						End Site
						{
							OFFSET 0.000000 0.000000 0.000000
						}
					}
				}
			}
		}
		JOINT LeftUpLeg
		{
			OFFSET 0.103458 1.857826 -10.548510
			CHANNELS 3 Zrotation Yrotation Xrotation
			JOINT LeftLeg
			{
				OFFSET 43.500046 -0.000015 0.000000
				CHANNELS 3 Zrotation Yrotation Xrotation
				JOINT LeftFoot
				{
					OFFSET 42.372261 -0.000011 0.000021
					CHANNELS 3 Zrotation Yrotation Xrotation
					JOINT LeftToe
					{
						OFFSET 17.299997 -0.000004 0.000000
						CHANNELS 3 Zrotation Yrotation Xrotation
						End Site
						{
							OFFSET 0.000000 0.000000 0.000000
						}
					}
				}
			}
		}
		JOINT Spine
		{
			OFFSET 6.901967 -2.603728 0.000002
			CHANNELS 3 Zrotation Yrotation Xrotation
			JOINT Spine1
			{
				OFFSET 12.588098 -0.000006 -0.000001
				CHANNELS 3 Zrotation Yrotation Xrotation
				JOINT Spine2
				{
					OFFSET 12.343200 0.000006 -0.000002
					CHANNELS 3 Zrotation Yrotation Xrotation
					JOINT Neck
					{
						OFFSET 25.832905 -0.000006 -0.000005
						CHANNELS 3 Zrotation Yrotation Xrotation
						JOINT Head
						{
							OFFSET 11.766604 0.000006 0.000006
							CHANNELS 3 Zrotation Yrotation Xrotation
							End Site
							{
								OFFSET 0.000000 0.000000 0.000000
							}
						}
					}
					JOINT RightShoulder
					{
						OFFSET 19.745914 -1.480366 6.000100
						CHANNELS 3 Zrotation Yrotation Xrotation
						JOINT RightArm
						{
							OFFSET 11.284136 -0.000006 -0.000022
							CHANNELS 3 Zrotation Yrotation Xrotation
							JOINT RightForeArm
							{
								OFFSET 33.000057 0.000006 0.000029
								CHANNELS 3 Zrotation Yrotation Xrotation
								JOINT RightHand
								{
									OFFSET 25.199999 0.000011 -0.000002
									CHANNELS 3 Zrotation Yrotation Xrotation
									End Site
									{
										OFFSET 0.000000 0.000000 0.000000
									}
								}
							}
						}
					}
					JOINT LeftShoulder
					{
						OFFSET 19.746107 -1.480371 -6.000078
						CHANNELS 3 Zrotation Yrotation Xrotation
						JOINT LeftArm
						{
							OFFSET 11.284137 -0.000012 0.000000
							CHANNELS 3 Zrotation Yrotation Xrotation
							JOINT LeftForeArm
							{
								OFFSET 33.000088 0.000017 0.000001
								CHANNELS 3 Zrotation Yrotation Xrotation
								JOINT LeftHand
								{
									OFFSET 25.199789 0.000135 0.000430
									CHANNELS 3 Zrotation Yrotation Xrotation
									End Site
									{
										OFFSET 0.000000 0.000000 0.000000
									}
								}
							}
						}
					}
				}
			}
		}
	}
}
MOTION
Frames: 15
Frame Time: 0.016667
226.011799 0.000000 -97.280169 0.000000 92.606232 0.000000 1.670105 91.378906 1.101186 97.608987 3.838044 -179.622094 -173.024606 -12.353203 177.176214 -15.654638 -4.194870 -12.129073 79.260137 6.030734 -11.019174 21.454560 0.003117 0.000017 -173.135788 -2.628812 178.419308 -12.431732 1.807731 7.695834 76.120115 -4.848000 2.395021 21.454553 -0.003084 0.000001 8.322011 1.109664 -0.216653 6.628829 2.229905 -0.369652 6.310483 2.227485 -0.383123 -2.297885 9.030430 8.776022 -15.931199 -11.947317 14.980152 -167.037411 -70.517903 -14.718273 -14.233552 41.834710 28.491144 -28.243989 -16.686649 1.330435 3.178868 15.196959 13.404550 -166.425194 74.712266 15.371217 -12.257300 -50.123055 -11.729463 -23.105565 15.497308 -1.145364 8.909131 -19.347426 -30.157750 
226.329052 0.000000 -97.400043 0.000000 92.744411 0.000000 1.685609 91.309201 1.133860 97.610059 3.942905 -179.820640 -173.318484 -12.648889 177.188535 -16.453658 -4.103201 -12.099069 79.470805 5.950734 -11.348893 21.454561 0.003102 0.000018 -173.246014 -2.882299 178.222180 -12.834741 1.968142 7.775393 76.466863 -4.971180 2.160014 21.454557 -0.003083 0.000002 8.360607 1.156121 -0.248607 6.705392 2.324647 -0.430083 6.387020 2.321873 -0.444117 -2.293047 9.108639 8.856321 -16.028490 -12.073446 15.134788 -166.381533 -70.275469 -15.395458 -13.582512 43.593108 28.265485 -28.014157 -16.571531 1.318430 3.379529 15.088407 13.468301 -166.588641 74.058000 15.206564 -12.986522 -51.578296 -8.822820 -20.551689 14.258403 -1.020471 9.335945 -19.848028 -27.501460 
226.651113 0.000000 -97.518832 0.000000 92.850083 0.000000 1.694884 91.233910 1.167302 97.621171 4.060921 179.999782 -173.680277 -12.980504 177.076261 -17.404041 -3.982833 -11.989910 79.686115 5.791150 -11.757161 21.454560 0.003100 0.000017 -173.363561 -3.154102 178.006478 -13.256107 2.136117 7.855694 76.818051 -5.095336 1.917992 21.454557 -0.003089 0.000001 8.405538 1.216705 -0.272767 6.794722 2.447280 -0.473927 6.476315 2.444241 -0.488705 -2.283309 9.060532 8.960982 -16.101843 -12.161289 15.272269 -165.545001 -70.129559 -16.258950 -13.078240 45.404337 27.782635 -27.520218 -16.438589 1.301550 3.427063 14.606204 12.988223 -166.403488 73.665943 15.398114 -13.088183 -53.162711 -6.134727 -19.460490 13.575049 -0.976555 11.514351 -20.195295 -27.896636 
226.977237 0.000000 -97.637786 0.000000 92.924255 0.000000 1.694500 91.143471 1.196836 97.633708 4.200597 179.854638 -174.196884 -13.323534 176.886401 -18.633505 -3.760047 -11.810246 79.910851 5.564624 -12.240645 21.454558 0.003105 0.000016 -173.516676 -3.447220 177.812280 -13.737621 2.314657 7.922758 77.196062 -5.210041 1.668991 21.454554 -0.003096 -0.000000 8.454093 1.289626 -0.287761 6.891455 2.594086 -0.498543 6.573006 2.590894 -0.514217 -2.263398 8.939948 9.069100 -16.165868 -12.209601 15.383082 -164.685658 -70.052747 -17.145854 -12.686666 47.177106 27.140340 -26.846254 -16.268862 1.279313 3.387533 13.843740 12.076378 -165.949206 73.449038 15.865218 -12.788046 -54.745730 -4.353904 -19.385444 13.366730 -0.966693 14.277413 -20.174729 -29.878226 
227.306676 0.000000 -97.758154 0.000000 92.967920 0.000000 1.681039 91.028320 1.217801 97.639124 4.370355 179.759371 -174.956061 -13.653790 176.666804 -20.269206 -3.359757 -11.573926 80.149858 5.283870 -12.796000 21.454557 0.003111 0.000015 -173.734030 -3.764610 177.680022 -14.321191 2.506606 7.962273 77.623186 -5.304669 1.413111 21.454551 -0.003096 -0.000001 8.503570 1.373090 -0.292222 6.990271 2.761324 -0.501316 6.671774 2.758113 -0.518009 -2.227817 8.800717 9.159786 -16.235216 -12.217089 15.457773 -163.961313 -70.020788 -17.893309 -12.360751 48.818489 26.446551 -26.076422 -16.043377 1.251513 3.328851 12.893619 10.844909 -165.288296 73.319474 16.544194 -12.244122 -56.171358 -4.219919 -19.890489 13.549886 -0.979908 16.404250 -19.664489 -31.938428 
227.638686 0.000000 -97.881188 0.000000 92.982059 0.000000 1.652799 90.883461 1.227376 97.633881 4.566158 179.725238 -176.023091 -13.949309 176.505381 -22.401555 -2.756911 -11.326816 80.369091 4.978202 -13.407523 21.454557 0.003114 0.000016 -174.031494 -4.097379 177.638542 -15.033036 2.715905 7.964643 78.114383 -5.372368 1.149430 21.454548 -0.003087 -0.000000 8.552248 1.463040 -0.286744 7.087772 2.940870 -0.483687 6.769223 2.937769 -0.501469 -2.171476 8.702748 9.219494 -16.318488 -12.199126 15.500688 -163.511650 -70.012193 -18.357259 -12.037773 50.255434 25.791455 -25.306727 -15.778689 1.221367 3.327923 11.847833 9.486654 -164.481331 73.212403 17.373206 -11.584627 -57.316284 -6.131230 -20.574318 14.011167 -1.015132 17.006464 -18.729242 -32.980066 
227.972518 0.000000 -98.008136 0.000000 92.967643 0.000000 1.614942 90.722160 1.230034 97.634039 4.734280 179.746911 -177.371065 -14.192399 176.648062 -24.979732 -2.136494 -11.209403 80.378041 4.741227 -14.009170 21.454558 0.003113 0.000017 -174.371888 -4.390111 177.668424 -15.836154 2.951957 7.940449 78.655699 -5.422098 0.872516 21.454548 -0.003083 0.000000 8.602283 1.546396 -0.279738 7.188079 3.107134 -0.463225 6.869480 3.104156 -0.482013 -2.091905 8.730221 9.263986 -16.399960 -12.237772 15.571423 -163.393410 -70.006315 -18.479305 -11.645876 51.496261 25.150041 -24.679736 -15.633673 1.202917 3.499975 10.792778 8.523983 -163.576514 73.155263 18.302483 -11.006346 -58.271839 -8.984083 -21.158948 14.520480 -1.057075 16.498167 -17.504793 -33.492860 
228.307427 0.000000 -98.140249 0.000000 92.925630 0.000000 1.574182 90.557174 1.230852 97.656581 4.833367 179.813852 -178.943295 -14.369822 177.274539 -27.912679 -1.691842 -11.323846 80.004679 4.651365 -14.516763 21.454557 0.003107 0.000018 -174.709055 -4.603633 177.726837 -16.678798 3.220403 7.910051 79.226610 -5.468617 0.580856 21.454548 -0.003094 -0.000001 8.655872 1.612937 -0.279521 7.295340 3.240258 -0.457165 6.976697 3.237305 -0.476759 -1.984177 8.940909 9.312154 -16.462115 -12.394901 15.719847 -163.581402 -69.985869 -18.285568 -11.142280 52.564391 24.498539 -24.304531 -15.728964 1.203784 3.898238 9.757543 8.367710 -162.647468 73.180848 19.255879 -10.703970 -59.174991 -11.481359 -21.481521 14.875795 -1.084903 15.502259 -16.093428 -34.097645 
228.642667 0.000000 -98.278777 0.000000 92.856966 0.000000 1.536647 90.380966 1.229947 97.703118 4.921266 179.910916 179.347968 -14.529808 178.146715 -31.068480 -1.393988 -11.586770 79.315523 4.677543 -14.828817 21.454557 0.003104 0.000018 -175.015592 -4.809998 177.729814 -17.513464 3.505790 7.912988 79.808895 -5.534111 0.293457 21.454550 -0.003104 -0.000002 8.711619 1.672855 -0.286158 7.406730 3.360595 -0.465046 7.088049 3.357581 -0.485367 -1.831150 9.262782 9.365135 -16.503306 -12.585459 15.900586 -163.803494 -69.951974 -18.056752 -10.599292 53.458092 23.935308 -24.114220 -15.888670 1.210386 4.365737 8.549393 8.678361 -161.924824 73.251220 19.996785 -10.513159 -60.032737 -13.294914 -21.725795 15.101528 -1.101287 14.279900 -14.568529 -34.426738 
228.977491 0.000000 -98.424969 0.000000 92.762591 0.000000 1.507053 90.188672 1.225178 97.772801 5.052501 -179.977264 177.584911 -14.716880 178.962395 -34.317410 -1.142983 -11.883984 78.418066 4.769566 -14.858182 21.454558 0.003109 0.000018 -175.267482 -5.076870 177.618588 -18.293695 3.787347 7.975072 80.380579 -5.631632 0.028318 21.454550 -0.003097 -0.000001 8.767849 1.736730 -0.297454 7.518955 3.489114 -0.481836 7.200238 3.485994 -0.502930 -1.621039 9.596407 9.420523 -16.527339 -12.700119 16.051461 -163.803435 -69.909633 -18.057193 -10.121172 54.175439 23.566262 -23.993905 -15.924661 1.209903 4.732119 7.020498 9.016258 -161.605764 73.320946 20.323378 -10.251949 -60.814063 -14.379212 -22.082501 15.260772 -1.115721 12.999616 -12.961319 -33.977086 
229.311153 0.000000 -98.580075 0.000000 92.643435 0.000000 1.485081 90.006416 1.210424 97.869160 5.169187 -179.862645 175.800627 -14.843593 179.566657 -37.585943 -0.812476 -12.141990 77.339918 4.891189 -14.589626 21.454558 0.003112 0.000017 -175.437029 -5.340186 177.473067 -18.974622 4.040054 8.045460 80.901623 -5.728589 -0.219512 21.454550 -0.003086 0.000001 8.825352 1.796286 -0.310492 7.633679 3.609119 -0.502216 7.314923 3.605876 -0.524035 -1.375239 9.862599 9.479461 -16.547178 -12.678960 16.139739 -163.630199 -69.855893 -18.236426 -9.830067 54.746881 23.407757 -23.810475 -15.897083 1.205127 4.932332 5.406202 9.273005 -161.544601 73.373706 20.385498 -10.070854 -61.514840 -14.805995 -22.419030 15.346368 -1.126161 11.723721 -11.238089 -32.684032 
229.642906 0.000000 -98.745346 0.000000 92.500420 0.000000 1.470955 89.861097 1.181675 97.993361 5.205291 -179.757934 174.023512 -14.823669 179.897370 -40.812390 -0.330097 -12.360981 76.093715 5.059389 -13.987279 21.454554 0.003106 0.000016 -175.501669 -5.524689 177.376834 -19.518344 4.243805 8.070891 81.337150 -5.791912 -0.459472 21.454549 -0.003087 0.000001 8.884655 1.841411 -0.321671 7.752074 3.700200 -0.519666 7.433276 3.696852 -0.542040 -1.120715 10.013789 9.543003 -16.574047 -12.511018 16.157370 -163.388729 -69.791599 -18.486190 -9.807782 55.221734 23.397975 -23.481876 -15.904238 1.201327 4.976475 3.944428 9.441372 -161.544926 73.399276 20.384858 -10.155322 -62.131010 -14.695951 -22.582910 15.352334 -1.128911 10.515964 -9.392099 -30.623596 
229.972004 0.000000 -98.922031 0.000000 92.334463 0.000000 1.472361 89.751717 1.147316 98.135012 5.174783 -179.681392 172.296658 -14.688602 -179.856721 -43.925939 0.108587 -12.749048 74.714468 5.489397 -12.866978 21.454553 0.003101 0.000016 -175.458885 -5.645402 177.292136 -19.911337 4.408275 8.062859 81.692429 -5.831986 -0.699078 21.454550 -0.003090 0.000001 8.942755 1.873528 -0.325302 7.868301 3.764796 -0.522856 7.549469 3.761429 -0.545627 -0.872673 10.108554 9.611310 -16.602028 -12.331955 16.165371 -163.104397 -69.742068 -18.780070 -9.944933 55.690318 23.262442 -23.148969 -15.948768 1.199868 5.058373 2.503025 9.567615 -161.567810 73.388910 20.361525 -10.490560 -62.625606 -14.264394 -22.666821 15.347129 -1.129637 9.543594 -7.583236 -27.989399 
230.297700 0.000000 -99.111380 0.000000 92.146477 0.000000 1.495387 89.669634 1.115111 98.282324 5.109469 -179.649540 170.667831 -14.482800 -179.519929 -46.848955 0.298412 -13.465635 73.271865 6.353409 -11.173255 21.454557 0.003107 0.000017 -175.317566 -5.736066 177.171337 -20.158526 4.544902 8.039133 81.984116 -5.862475 -0.942959 21.454551 -0.003084 0.000001 8.996334 1.897203 -0.316351 7.975880 3.811645 -0.501560 7.657030 3.808411 -0.524618 -0.644340 10.205428 9.684088 -16.617868 -12.271534 16.220643 -162.789181 -69.728053 -19.105469 -10.111669 56.230725 22.759203 -22.959126 -16.017835 1.201543 5.336468 0.923762 9.644386 -161.610101 73.342244 20.318735 -11.001613 -62.967027 -13.730946 -22.803132 15.407335 -1.135477 8.923263 -5.965327 -25.034981 
230.619249 0.000000 -99.314643 0.000000 91.937371 0.000000 1.531880 89.603531 1.078358 98.428494 5.031993 -179.666761 169.193075 -14.231211 -179.232128 -49.484395 0.344838 -14.360430 71.899857 7.405127 -9.478682 21.454560 0.003113 0.000018 -175.114043 -5.814613 177.047601 -20.315124 4.639944 7.979394 82.233469 -5.867363 -1.184576 21.454553 -0.003081 0.000001 9.044347 1.918088 -0.294499 8.072750 3.851993 -0.454817 7.753888 3.849041 -0.478119 -0.453832 10.256630 9.757537 -16.597153 -12.289518 16.294164 -162.486497 -69.727793 -19.417795 -10.269431 56.833462 22.000127 -22.862475 -16.132299 1.207362 5.664223 -0.681540 9.437203 -161.653938 73.290672 20.274406 -11.629562 -63.179637 -13.183109 -23.037530 15.567784 -1.148858 8.561377 -4.429288 -22.213568 
